<?xml version="1.0" standalone="no"?><!DOCTYPE svg PUBLIC "-//W3C//DTD SVG 1.1//EN" "http://www.w3.org/Graphics/SVG/1.1/DTD/svg11.dtd"><svg t="1753372542831" class="icon" viewBox="0 0 1024 1024" version="1.1" xmlns="http://www.w3.org/2000/svg" p-id="8219" xmlns:xlink="http://www.w3.org/1999/xlink" width="200" height="200"><path d="M820.2 895.6H369.8c-55.4 0-100.8-45.3-100.8-100.8V311.5c0-55.2 45.2-100.5 100.5-100.5h450.7c6.6 0 12 5.4 12 12v660.6c0 6.6-5.4 12-12 12z" fill="#E4E6EB" p-id="8220"></path><path d="M820.2 920.6H279.9c-69.3 0-125.8-56.4-125.8-125.8V228.4c0-69.2 56.3-125.5 125.5-125.5h540.6c20.4 0 37 16.6 37 37v743.6c0 20.5-16.6 37.1-37 37.1zM279.6 153c-41.6 0-75.5 33.8-75.5 75.5v566.4c0 41.8 34 75.8 75.8 75.8h527.3V153H279.6z" fill="#7D869D" p-id="8221"></path><path d="M495 554c-7 0-13.9-3-18.8-8.5l-66.7-75.8-71.9 76.4c-7 7.5-17.9 9.9-27.4 6.1-9.5-3.8-15.8-13-15.8-23.2V128c0-13.8 11.2-25 25-25s25 11.2 25 25v338l47.6-50.5c4.8-5.1 11.6-8 18.6-7.9 7 0.1 13.7 3.2 18.4 8.5l41.1 46.7V134.1c0-13.8 11.2-25 25-25s25 11.2 25 25V529c0 10.4-6.4 19.7-16.2 23.4-3 1.1-6 1.6-8.9 1.6zM204.1 796.4h-50c0-69.2 56.3-125.5 125.5-125.5h540.6c20.4 0 37 16.6 37 37h-50c0 7.2 5.8 13 13 13H279.6c-41.6 0.1-75.5 33.9-75.5 75.5z" fill="#7D869D" p-id="8222"></path></svg>